<svg xmlns="http://www.w3.org/2000/svg" xmlns:xlink="http://www.w3.org/1999/xlink" version="1.1" width="394" height="147">

<style type="text/css">
	.st0{fill:#315A8F;}
	.st1{fill:#2D4D89;}
	.st2{fill:#FFFFFF;}
	.st3{fill:url(#SVGID_1_);}
	.st4{fill:url(#SVGID_2_);}
	.st5{fill:url(#SVGID_3_);}
	.st6{fill:url(#SVGID_4_);}
	.st7{fill:url(#SVGID_5_);}
	.st8{fill:url(#SVGID_6_);}
	.st9{fill:url(#SVGID_7_);}
	.st10{fill:url(#SVGID_8_);}
	.st11{fill:url(#SVGID_9_);}
	.st12{fill:url(#SVGID_10_);}
	.st13{fill:url(#SVGID_11_);}
	.st14{fill:url(#SVGID_12_);}
	.st15{fill:url(#SVGID_13_);}
	.st16{fill:url(#SVGID_14_);}
	.st17{fill:url(#SVGID_15_);}
	.st18{fill:url(#SVGID_16_);}
	.st19{fill:url(#SVGID_17_);}
	.st20{fill:url(#SVGID_18_);}
	.st21{fill:url(#SVGID_19_);}
	.st22{fill:url(#SVGID_20_);}
	.st23{fill:url(#SVGID_21_);}
	.st24{fill:url(#SVGID_22_);}
	.st25{fill:url(#SVGID_23_);}
	.st26{fill:url(#SVGID_24_);}
	.st27{fill:url(#SVGID_25_);}
	.st28{fill:#315A8F;stroke:#FFFFFF;stroke-miterlimit:10;}
	.st29{fill:none;}
	.st30{font-family:'MyriadPro-Regular';}
	.st31{font-size:12px;}
</style>
<rect class="st0" width="394.5" height="147.8"/>
<g>
	<path class="st0" d="M89.8,97.6c-1.2,0-2.1,0.5-2.5,1.6l-0.4,0.9h3.7l0.4-0.9C91.5,98.1,91.1,97.6,89.8,97.6z"/>
	<path class="st0" d="M31,97.6c-1.2,0-2.1,0.5-2.5,1.6l-1,2.4c-0.5,1.1-0.1,1.6,1.2,1.6c1.2,0,2.1-0.5,2.5-1.6l1-2.4
		C32.6,98.1,32.2,97.6,31,97.6z"/>
	<path class="st1" d="M80.2,75.4c-1.2,0-2.3,0.1-3.3,0.3c-2.5,0.5-4.5,1.6-5.4,3.7l-2.7,6.2c-1.3,2.9,1.1,3.8,4.9,3.8
		c1.1,0,2.2-0.1,3.2-0.3c2.5-0.5,4.5-1.6,5.4-3.7l2.7-6.2C86.3,76.2,84,75.4,80.2,75.4z"/>
	<path class="st0" d="M23.7,99.1c0.3,0,0.6-0.1,0.8-0.3c0.2-0.1,0.4-0.3,0.6-0.5c0.2-0.2,0.3-0.5,0.4-0.8c0.2-0.4,0.2-0.8,0-1
		c-0.2-0.2-0.6-0.4-1.1-0.4h-2.2l-1.2,3h1.7C23,99.2,23.4,99.2,23.7,99.1z"/>
	<polygon class="st0" points="103.7,100.6 104,96.5 100.7,100.6 	"/>
	<path class="st0" d="M22.4,102.9c0.3,0,0.6-0.1,0.8-0.3c0.3-0.1,0.5-0.3,0.7-0.5c0.2-0.2,0.4-0.5,0.5-0.8c0.1-0.3,0.2-0.5,0.1-0.7
		c0-0.2-0.1-0.3-0.3-0.5c-0.2-0.1-0.4-0.2-0.6-0.2c-0.2,0-0.5-0.1-0.7-0.1h-2.3l-1.3,3.1h2.2C21.9,103,22.1,102.9,22.4,102.9z"/>
	<path class="st1" d="M44,89.5c0.8,0,1.6-0.1,2.4-0.2c1.2-0.1,2.4-0.4,3.6-0.8c3.4-0.6,8.5-6.5,3.8-9c-0.8-0.3-1.8-0.6-2.7-0.7
		c-1.1-0.1-2.2-0.2-3.4-0.2H44h-7l-4.6,11h10.1C43,89.6,43.5,89.5,44,89.5z"/>
	<path class="st1" d="M45.2,76.9c1.6,0,1.8,0,3.4-0.1c3.4-0.4,5.9-1.1,7.7-3c1.5-1.5,3.1-5.2,1-6.6c-1.3-0.8-3.2-1.1-4.8-1.2H44
		h-1.9l-4.4,10.9H44H45.2z"/>
	<path class="st0" d="M138.7,97.6c-1.2,0-2.1,0.5-2.5,1.6l-1,2.4c-0.5,1.1-0.1,1.6,1.2,1.6c1.2,0,2.1-0.5,2.5-1.6l1-2.4
		C140.3,98.1,139.9,97.6,138.7,97.6z"/>
	<path class="st2" d="M117.7,81.6c-0.4,0.3-0.8,0.6-1.2,0.8C116.9,82.2,117.3,82,117.7,81.6z"/>
	<path class="st2" d="M109,68L87.8,91.2h3.9c16.4-18,5.3-5.7,20.2-22.3c0.6,4.2,0.9,6.8,1.2,8.6c1.9-2.1,3.4-5.3,4.7-9l-0.3-2.6
		c-0.2-1.3-0.6-1.5-2.1-1.5l-6.3,0l-1.4,1.5l1.3,0C109.2,66,110.7,66.1,109,68z"/>
	<path class="st2" d="M114,84.4c0.2,1.5,0.4,3.6,0.8,6.8h6l-1-7.6c-1.2,0.8-2.4,1.2-3.5,1.2C115.4,84.8,114.6,84.7,114,84.4z"/>
	<path class="st2" d="M44,91.2c1.4,0,2.8-0.1,4.2-0.3c1.9-0.2,3.8-0.6,5.6-1.1c1.7-0.5,3.3-1.3,4.6-2.2c1.4-1,2.4-2.3,3-3.7
		c0.6-1.4,0.9-3-0.1-4.3c-0.7-1-2.5-1.7-5.8-2.1c3.9-0.8,7.3-3.1,8.3-5.4c0.4-0.7,0.7-1.6,0.7-2.4v-0.3c0-0.4-0.1-0.7-0.3-1.1
		c-0.5-1-1.3-1.8-2.5-2.4c-1.3-0.6-2.8-1-4.3-1.2c-1.7-0.2-3.4-0.3-5.1-0.3l-8.2,0l-10.1,0L33.3,66h1.4c0.3,0,0.4,0,0.8,0.4
		c0.4,0.4,0.1,1.3-0.1,1.7l-9.6,23.1h16.5C42.9,91.2,43.5,91.2,44,91.2z M42.2,66H44h8.4c1.6,0.1,3.5,0.3,4.8,1.2
		c2.2,1.5,0.5,5.1-1,6.6c-1.9,1.9-4.4,2.7-7.7,3c-1.6,0.1-1.7,0.1-3.4,0.1H44h-6.2L42.2,66z M37,78.6h7h3.7c1.1,0,2.2,0.1,3.4,0.2
		c1,0.1,1.9,0.4,2.7,0.7c4.7,2.5-0.4,8.5-3.8,9c-1.1,0.4-2.3,0.6-3.6,0.8c-0.8,0.1-1.6,0.2-2.4,0.2c-0.5,0-1,0-1.5,0H32.4L37,78.6z"
		/>
	<path class="st2" d="M88.3,85.5l2.7-6.2c2.2-5.1-4.7-6-10.2-6c-1.3,0-2.5,0-3.8,0.2c-4.8,0.4-9.3,1.9-10.9,5.6l-2.6,6.2
		c-0.3,0.7-0.4,1.3-0.4,1.8v0.1c0.1,3.4,5.4,4.1,10.2,4.1c1.2,0,2.5,0,3.7-0.1C82,90.7,86.6,89.3,88.3,85.5z M85,79.1l-2.7,6.2
		c-0.9,2.1-2.8,3.2-5.4,3.7c-1,0.2-2,0.3-3.2,0.3c-3.8,0-6.2-0.8-4.9-3.8l2.7-6.2c0.9-2.1,2.9-3.2,5.4-3.7c1-0.2,2.1-0.3,3.3-0.3
		C84,75.4,86.3,76.2,85,79.1z"/>
	<path class="st2" d="M18,103.7h0.4c-0.1-0.2-0.1-0.3-0.2-0.5L18,103.7z"/>
	<path class="st2" d="M22.6,103.6c0.4-0.1,0.8-0.2,1.2-0.3c0.4-0.2,0.7-0.4,1-0.7c0.3-0.3,0.5-0.7,0.7-1.1c0.2-0.5,0.3-0.9,0.2-1.3
		c-0.1-0.3-0.4-0.6-0.7-0.7c0.7-0.3,1.2-0.9,1.6-1.8c0.2-0.4,0.3-0.8,0.2-1.1c0-0.3-0.2-0.5-0.4-0.7c-0.2-0.2-0.5-0.3-0.8-0.3
		c-0.3-0.1-0.7-0.1-1-0.1h-4h-0.1l-0.1,0.3h0.2c0.3,0,0.4,0.1,0.5,0.2c0.1,0.1,0,0.4-0.1,0.7l-2.7,6.6c0.1,0.2,0.1,0.3,0.2,0.5h3
		C21.8,103.7,22.2,103.7,22.6,103.6z M22.2,96.2h2.2c0.5,0,0.9,0.2,1.1,0.4c0.2,0.2,0.2,0.6,0,1c-0.1,0.3-0.3,0.5-0.4,0.8
		c-0.2,0.2-0.4,0.4-0.6,0.5c-0.2,0.1-0.5,0.2-0.8,0.3c-0.3,0-0.7,0.1-1.1,0.1H21L22.2,96.2z M20.7,99.9H23c0.3,0,0.5,0,0.7,0.1
		c0.2,0,0.4,0.1,0.6,0.2c0.2,0.1,0.3,0.3,0.3,0.5c0,0.2,0,0.4-0.1,0.7c-0.1,0.3-0.3,0.6-0.5,0.8c-0.2,0.2-0.5,0.4-0.7,0.5
		c-0.3,0.1-0.5,0.2-0.8,0.3c-0.3,0-0.6,0.1-0.8,0.1h-2.2L20.7,99.9z"/>
	<path class="st2" d="M31.2,97.1c-2,0-3.4,0.7-4,2.1l-1,2.4c-0.6,1.4,0.1,2.1,2.2,2.1c2,0,3.4-0.7,4-2.1l1-2.4
		C33.9,97.8,33.2,97.1,31.2,97.1z M32.1,99.2l-1,2.4c-0.5,1.1-1.3,1.6-2.5,1.6c-1.2,0-1.6-0.5-1.2-1.6l1-2.4
		c0.5-1.1,1.3-1.6,2.5-1.6C32.2,97.6,32.6,98.1,32.1,99.2z"/>
	<polygon class="st2" points="36.4,95.5 33,103.7 34.3,103.7 37.8,95.2 	"/>
	<polygon class="st2" points="38.6,97.1 35.8,103.7 37,103.7 39.8,97.1 	"/>
	<polygon class="st2" points="40.1,96.3 40.4,95.7 39.2,95.7 38.9,96.3 	"/>
	<path class="st2" d="M45.9,97.1l-4,5.3c-0.1,0.1-0.1,0.2-0.2,0.2c-0.1,0.1-0.2,0.1-0.3,0.1H41c-0.1,0-0.1,0-0.2,0
		c0,0-0.1-0.1-0.1-0.1c0,0,0-0.1,0-0.2l0.6-5.3h-1.1l-0.7,6.1c0,0,0,0,0,0.1c0,0.1,0,0.1,0.1,0.2c0.1,0.1,0.2,0.1,0.3,0.2
		c0.1,0,0.4,0.1,0.7,0.1c0.2,0,0.4,0,0.6,0c0.2,0,0.3-0.1,0.5-0.1c0.1,0,0.2-0.1,0.3-0.2c0.1-0.1,0.1-0.1,0.2-0.1l4.7-6.1H45.9z"/>
	<polygon class="st2" points="49.5,96.3 49.8,95.7 48.6,95.7 48.3,96.3 	"/>
	<polygon class="st2" points="48,97.1 45.2,103.7 46.4,103.7 49.2,97.1 	"/>
	<path class="st2" d="M53.6,97.1c-1,0-1.8,0.1-2.4,0.4l0.5,0.6c0.4-0.3,1-0.5,1.7-0.5c1.2,0,1.6,0.5,1.2,1.6l-0.1,0.3h-1.8
		c-2,0-3.4,0.7-4,2.1c-0.6,1.4,0.1,2.1,2.2,2.1h0c0.4,0,0.8-0.1,1-0.2l0.2-0.5c-0.2,0.1-0.6,0.2-1.1,0.2c-1.2,0-1.6-0.5-1.2-1.6
		c0.5-1.1,1.3-1.6,2.5-1.6h1.8l-1.6,3.8h1.2l1.9-4.5C56.4,97.8,55.6,97.1,53.6,97.1z"/>
	<path class="st2" d="M61.3,97.1c-0.8,0-1.5,0.2-2,0.5l0.2-0.5h-1.2l-2.7,6.6h1.2l1.9-4.6c0.5-1,1.3-1.6,2.5-1.6
		c1.2,0,1.6,0.5,1.2,1.6l-1.9,4.5h1.2l1.9-4.5C64.1,97.8,63.3,97.1,61.3,97.1z"/>
	<path class="st2" d="M69,97.1c-1,0-1.8,0.1-2.4,0.4l0.5,0.6c0.4-0.3,1-0.5,1.7-0.5c1.2,0,1.6,0.5,1.2,1.6l-0.1,0.3H68
		c-2,0-3.4,0.7-4,2.1c-0.6,1.4,0.1,2.1,2.2,2.1h0c0.4,0,0.8-0.1,1-0.2l0.2-0.5c-0.2,0.1-0.6,0.2-1.1,0.2c-1.2,0-1.6-0.5-1.2-1.6
		c0.5-1.1,1.3-1.6,2.5-1.6h1.8l-1.6,3.8h1.2l1.9-4.5C71.8,97.8,71,97.1,69,97.1z"/>
	<path class="st2" d="M84.9,95.5l-0.7,1.6h-1.8c-2,0-3.4,0.7-4,2.1l-1,2.4c-0.6,1.4,0.1,2.1,2.2,2.1h0c0.5,0,0.9,0,1.2-0.1
		c0.1-0.2,0.2-0.4,0.2-0.6c-0.3,0.2-0.7,0.3-1.2,0.3c-1.2,0-1.6-0.5-1.2-1.6l1-2.4c0.5-1.1,1.3-1.6,2.5-1.6H84l-1.6,3.9l-0.9,2.3
		h1.2l3.5-8.5L84.9,95.5z"/>
	<path class="st2" d="M90,97.1c-2,0-3.4,0.7-4,2.1l-1,2.4c-0.6,1.4,0.1,2.1,2.2,2.1c2,0,3.3-0.6,3.8-1.7h-1.2
		c-0.3,0.8-1.1,1.2-2.3,1.2c-1.2,0-1.6-0.5-1.2-1.6l0.4-0.9h4.9l0.6-1.4C92.8,97.8,92.1,97.1,90,97.1z M91,99.2l-0.4,0.9h-3.7
		l0.4-0.9c0.5-1.1,1.3-1.6,2.5-1.6C91.1,97.6,91.5,98.1,91,99.2z"/>
	<path class="st2" d="M104.6,95.5h-2.3l-0.1,0.3c0.7-0.1,0.9,0.1,0.7,0.5l-5.3,7.4h0.9l1.8-2.4h3.3l-0.1,2.4h1.1l0.5-7.8
		C105.2,95.7,105,95.5,104.6,95.5z M103.7,100.6h-2.9l3.2-4.2L103.7,100.6z"/>
	<path class="st2" d="M113.5,97.1l-4,5.3c-0.1,0.1-0.1,0.2-0.2,0.2c-0.1,0.1-0.2,0.1-0.3,0.1h-0.4c-0.1,0-0.1,0-0.2,0
		c0,0-0.1-0.1-0.1-0.1c0,0,0-0.1,0-0.2l0.6-5.3h-1.1l-0.7,6.1c0,0,0,0,0,0.1c0,0.1,0,0.1,0.1,0.2c0.1,0.1,0.2,0.1,0.3,0.2
		c0.1,0,0.4,0.1,0.7,0.1c0.2,0,0.4,0,0.6,0c0.2,0,0.3-0.1,0.5-0.1c0.1,0,0.2-0.1,0.3-0.2c0.1-0.1,0.1-0.1,0.2-0.1l4.7-6.1H113.5z"/>
	<polygon class="st2" points="115.6,97.1 112.8,103.7 114,103.7 116.8,97.1 	"/>
	<polygon class="st2" points="117.1,96.3 117.4,95.7 116.2,95.7 115.9,96.3 	"/>
	<path class="st2" d="M121.2,97.1c-1,0-1.8,0.1-2.4,0.4l0.5,0.6c0.4-0.3,1-0.5,1.7-0.5c1.2,0,1.6,0.5,1.2,1.6l-0.1,0.3h-1.8
		c-2,0-3.4,0.7-4,2.1c-0.6,1.4,0.1,2.1,2.2,2.1h0c0.4,0,0.8-0.1,1-0.2l0.2-0.5c-0.2,0.1-0.6,0.2-1.1,0.2c-1.2,0-1.6-0.5-1.2-1.6
		c0.5-1.1,1.3-1.6,2.5-1.6h1.8l-1.6,3.8h1.2l1.9-4.5C124,97.8,123.2,97.1,121.2,97.1z"/>
	<path class="st2" d="M131.3,98.7c0.4-1.1-0.4-1.6-2.4-1.6c-2,0-3.4,0.7-4,2.1l-1,2.4c-0.6,1.4,0.1,2.1,2.2,2.1c2,0,3.3-0.5,3.7-1.6
		h-1.2c-0.3,0.7-1.1,1.1-2.3,1.1c-1.2,0-1.6-0.5-1.2-1.6l1-2.4c0.5-1.1,1.3-1.6,2.5-1.6c1.2,0,1.7,0.4,1.4,1.1H131.3z"/>
	<polygon class="st2" points="134.9,96.3 135.1,95.7 133.9,95.7 133.6,96.3 	"/>
	<polygon class="st2" points="133.3,97.1 130.6,103.7 131.8,103.7 134.5,97.1 	"/>
	<path class="st2" d="M138.9,97.1c-2,0-3.4,0.7-4,2.1l-1,2.4c-0.6,1.4,0.1,2.1,2.2,2.1c2,0,3.4-0.7,4-2.1l1-2.4
		C141.7,97.8,141,97.1,138.9,97.1z M139.9,99.2l-1,2.4c-0.5,1.1-1.3,1.6-2.5,1.6c-1.2,0-1.6-0.5-1.2-1.6l1-2.4
		c0.5-1.1,1.3-1.6,2.5-1.6C139.9,97.6,140.3,98.1,139.9,99.2z"/>
	<path class="st2" d="M141.1,95.5c-0.1,0-0.2,0.1-0.3,0.2c-0.1,0.1-0.3,0.2-0.5,0.3c-0.2,0.1-0.4,0.2-0.5,0.3
		c-0.2,0.1-0.4,0.2-0.5,0.3l-0.2,0.4l2.2-0.9l0-0.2c0-0.1,0-0.1,0-0.2C141.1,95.6,141.1,95.6,141.1,95.5z"/>
	<path class="st2" d="M146.6,97.1c-0.8,0-1.5,0.2-2,0.5l0.2-0.5h-1.2l-2.7,6.6h1.2l1.9-4.6c0.5-1,1.3-1.6,2.5-1.6
		c1.2,0,1.6,0.5,1.2,1.6l-1.9,4.5h1.2l1.9-4.5C149.4,97.8,148.7,97.1,146.6,97.1z"/>
	<path class="st0" d="M126.4,58.2c0.3-0.7,0.7-1.4,1-2.1c0,0,0,0,0,0c4.9-14.6,8.6-21.3,13.3-22.1c0,0-9.2-1.7-16.5,15.9
		c-2.4,5.7-4.2,12.8-6.3,18.6l0.8,6.3C121.1,70.6,123.4,64.5,126.4,58.2z"/>
	<linearGradient id="SVGID_1_" gradientUnits="userSpaceOnUse" x1="103.931" y1="54.5075" x2="140.6672" y2="54.5075">
		<stop  offset="0" style="stop-color:#7B1019"/>
		<stop  offset="1" style="stop-color:#DD403B"/>
	</linearGradient>
	<path class="st3" d="M126.4,58.2c0.3-0.7,0.7-1.4,1-2.1c0,0,0,0,0,0c4.9-14.6,8.6-21.3,13.3-22.1c0,0-9.2-1.7-16.5,15.9
		c-2.4,5.7-4.2,12.8-6.3,18.6l0.8,6.3C121.1,70.6,123.4,64.5,126.4,58.2z"/>
	<path class="st0" d="M107.4,80.9c0.7,0.3,1.7-0.2,2.4,0c0.9,0.3,1,0.9,2.5,0.6c0.4-0.1,0.8-0.3,1.2-0.5c-0.1-0.9-0.3-1.9-0.5-3.4
		c-1.2,1.3-2.5,2.2-4.1,2.4c-2.2,0.3-1.8-0.4-2.7-0.7c-0.7-0.2-1.7,0.5-2.4,0.2c0,0,1.7,2.5,5,2.7C108,81.6,107.4,80.9,107.4,80.9z"
		/>
	<linearGradient id="SVGID_2_" gradientUnits="userSpaceOnUse" x1="103.931" y1="79.9415" x2="140.6672" y2="79.9415">
		<stop  offset="0" style="stop-color:#7B1019"/>
		<stop  offset="1" style="stop-color:#DD403B"/>
	</linearGradient>
	<path class="st4" d="M107.4,80.9c0.7,0.3,1.7-0.2,2.4,0c0.9,0.3,1,0.9,2.5,0.6c0.4-0.1,0.8-0.3,1.2-0.5c-0.1-0.9-0.3-1.9-0.5-3.4
		c-1.2,1.3-2.5,2.2-4.1,2.4c-2.2,0.3-1.8-0.4-2.7-0.7c-0.7-0.2-1.7,0.5-2.4,0.2c0,0,1.7,2.5,5,2.7C108,81.6,107.4,80.9,107.4,80.9z"
		/>
	<path class="st2" d="M113.6,81.1c1.9-1,3.5-3.2,5.1-6.1l-0.8-6.3c-1.4,3.7-2.9,6.9-4.7,9C113.3,79.2,113.4,80.1,113.6,81.1z"/>
	<linearGradient id="SVGID_3_" gradientUnits="userSpaceOnUse" x1="103.931" y1="74.8407" x2="140.6672" y2="74.8407">
		<stop  offset="0" style="stop-color:#7B1019"/>
		<stop  offset="1" style="stop-color:#DD403B"/>
	</linearGradient>
	<path class="st5" d="M113.6,81.1c1.9-1,3.5-3.2,5.1-6.1l-0.8-6.3c-1.4,3.7-2.9,6.9-4.7,9C113.3,79.2,113.4,80.1,113.6,81.1z"/>
	<path class="st0" d="M140.6,60.7c-1.7-0.9-2.9,0.1-2.9,0.1s-1.8,1.2-2.1,1.6c0,0,2-1.9,3-1.8c2.1,0.2,4.2,4.6,5,6
		C143.6,66.6,142.4,61.7,140.6,60.7z"/>
	<linearGradient id="SVGID_4_" gradientUnits="userSpaceOnUse" x1="135.5845" y1="63.4537" x2="143.5773" y2="63.4537">
		<stop  offset="0" style="stop-color:#828014"/>
		<stop  offset="1" style="stop-color:#BFC846"/>
	</linearGradient>
	<path class="st6" d="M140.6,60.7c-1.7-0.9-2.9,0.1-2.9,0.1s-1.8,1.2-2.1,1.6c0,0,2-1.9,3-1.8c2.1,0.2,4.2,4.6,5,6
		C143.6,66.6,142.4,61.7,140.6,60.7z"/>
	<path class="st0" d="M149.9,54.3c0,0-2.8-7.2-5.4-8.8c-2.4-1.4-4.5,0.5-4.5,0.5s-2.1,1.8-2.5,2.5c0,0,2.5-2.7,3.9-2.8
		C144.9,45.7,148.7,52.5,149.9,54.3z"/>
	<linearGradient id="SVGID_5_" gradientUnits="userSpaceOnUse" x1="137.4884" y1="49.6785" x2="149.9083" y2="49.6785">
		<stop  offset="0" style="stop-color:#F48120"/>
		<stop  offset="1" style="stop-color:#FFC635"/>
	</linearGradient>
	<path class="st7" d="M149.9,54.3c0,0-2.8-7.2-5.4-8.8c-2.4-1.4-4.5,0.5-4.5,0.5s-2.1,1.8-2.5,2.5c0,0,2.5-2.7,3.9-2.8
		C144.9,45.7,148.7,52.5,149.9,54.3z"/>
	<path class="st0" d="M111.4,82.4c0.7,0.1,1.4-0.3,2-0.1c0.2,0.1,0.3,0.2,0.5,0.3c-0.1-0.6-0.1-1-0.2-1.5c-1.3,0.8-2.7,1.2-4.2,1.2
		c-0.2,0-0.3,0-0.4,0c0.9,0.6,2.1,1.2,3.6,1.3C111.8,83,111.4,82.4,111.4,82.4z"/>
	<linearGradient id="SVGID_6_" gradientUnits="userSpaceOnUse" x1="118.5223" y1="75.2739" x2="140.9731" y2="52.8231">
		<stop  offset="0" style="stop-color:#F48120"/>
		<stop  offset="1" style="stop-color:#FFC635"/>
	</linearGradient>
	<path class="st8" d="M111.4,82.4c0.7,0.1,1.4-0.3,2-0.1c0.2,0.1,0.3,0.2,0.5,0.3c-0.1-0.6-0.1-1-0.2-1.5c-1.3,0.8-2.7,1.2-4.2,1.2
		c-0.2,0-0.3,0-0.4,0c0.9,0.6,2.1,1.2,3.6,1.3C111.8,83,111.4,82.4,111.4,82.4z"/>
	<path class="st0" d="M119.3,79.9c1.9-2.3,4.1-6.1,7.8-11.9c0.1-0.1,0.1-0.2,0.2-0.3c1.2-2.4,2.4-5.1,3.7-8.1
		c5-10.6,8.3-15.2,12.6-15.3c0,0-8.2-3.3-16.2,11.8c-3.6,8.5-6.2,14.8-8.7,19.1L119.3,79.9z"/>
	<linearGradient id="SVGID_7_" gradientUnits="userSpaceOnUse" x1="116.7553" y1="73.5069" x2="139.2061" y2="51.0561">
		<stop  offset="0" style="stop-color:#F48120"/>
		<stop  offset="1" style="stop-color:#FFC635"/>
	</linearGradient>
	<path class="st9" d="M119.3,79.9c1.9-2.3,4.1-6.1,7.8-11.9c0.1-0.1,0.1-0.2,0.2-0.3c1.2-2.4,2.4-5.1,3.7-8.1
		c5-10.6,8.3-15.2,12.6-15.3c0,0-8.2-3.3-16.2,11.8c-3.6,8.5-6.2,14.8-8.7,19.1L119.3,79.9z"/>
	<path class="st2" d="M113.6,81.1c0.1,0.5,0.1,1,0.2,1.5c0.3,0.2,0.6,0.4,1,0.4c0.6-0.1,1.2-0.3,1.7-0.6c0.4-0.2,0.8-0.5,1.2-0.8
		c0.5-0.4,1-1,1.6-1.7l-0.6-4.7C117,78.1,115.4,80,113.6,81.1z"/>
	<linearGradient id="SVGID_8_" gradientUnits="userSpaceOnUse" x1="119.9525" y1="76.7041" x2="142.4033" y2="54.2533">
		<stop  offset="0" style="stop-color:#F48120"/>
		<stop  offset="1" style="stop-color:#FFC635"/>
	</linearGradient>
	<path class="st10" d="M113.6,81.1c0.1,0.5,0.1,1,0.2,1.5c0.3,0.2,0.6,0.4,1,0.4c0.6-0.1,1.2-0.3,1.7-0.6c0.4-0.2,0.8-0.5,1.2-0.8
		c0.5-0.4,1-1,1.6-1.7l-0.6-4.7C117,78.1,115.4,80,113.6,81.1z"/>
	<path class="st0" d="M113.6,81.1C113.6,81.1,113.6,81.1,113.6,81.1c-0.4,0.1-0.8,0.3-1.3,0.4c-1.5,0.3-1.6-0.3-2.5-0.6
		c-0.7-0.2-1.7,0.2-2.4,0c0,0,0.5,0.7,1.5,1.4c0.1,0,0.3,0,0.4,0C110.9,82.3,112.3,81.9,113.6,81.1z"/>
	<linearGradient id="SVGID_9_" gradientUnits="userSpaceOnUse" x1="103.931" y1="81.5764" x2="140.6672" y2="81.5764">
		<stop  offset="0" style="stop-color:#7B1019"/>
		<stop  offset="1" style="stop-color:#DD403B"/>
	</linearGradient>
	<path class="st11" d="M113.6,81.1C113.6,81.1,113.6,81.1,113.6,81.1c-0.4,0.1-0.8,0.3-1.3,0.4c-1.5,0.3-1.6-0.3-2.5-0.6
		c-0.7-0.2-1.7,0.2-2.4,0c0,0,0.5,0.7,1.5,1.4c0.1,0,0.3,0,0.4,0C110.9,82.3,112.3,81.9,113.6,81.1z"/>
	<linearGradient id="SVGID_10_" gradientUnits="userSpaceOnUse" x1="117.3848" y1="74.1364" x2="139.8356" y2="51.6856">
		<stop  offset="0" style="stop-color:#F48120"/>
		<stop  offset="1" style="stop-color:#FFC635"/>
	</linearGradient>
	<path class="st12" d="M113.6,81.1C113.6,81.1,113.6,81.1,113.6,81.1c-0.4,0.1-0.8,0.3-1.3,0.4c-1.5,0.3-1.6-0.3-2.5-0.6
		c-0.7-0.2-1.7,0.2-2.4,0c0,0,0.5,0.7,1.5,1.4c0.1,0,0.3,0,0.4,0C110.9,82.3,112.3,81.9,113.6,81.1z"/>
	<path class="st0" d="M118.7,75l0,0.2c2.5-4.2,5.1-10.5,8.7-19.1c-0.3,0.7-0.7,1.3-1,2.1C123.4,64.5,121.1,70.6,118.7,75z"/>
	<linearGradient id="SVGID_11_" gradientUnits="userSpaceOnUse" x1="103.931" y1="65.6811" x2="140.6672" y2="65.6811">
		<stop  offset="0" style="stop-color:#7B1019"/>
		<stop  offset="1" style="stop-color:#DD403B"/>
	</linearGradient>
	<path class="st13" d="M118.7,75l0,0.2c2.5-4.2,5.1-10.5,8.7-19.1c-0.3,0.7-0.7,1.3-1,2.1C123.4,64.5,121.1,70.6,118.7,75z"/>
	<linearGradient id="SVGID_12_" gradientUnits="userSpaceOnUse" x1="115.9924" y1="72.744" x2="138.4432" y2="50.2932">
		<stop  offset="0" style="stop-color:#F48120"/>
		<stop  offset="1" style="stop-color:#FFC635"/>
	</linearGradient>
	<path class="st14" d="M118.7,75l0,0.2c2.5-4.2,5.1-10.5,8.7-19.1c-0.3,0.7-0.7,1.3-1,2.1C123.4,64.5,121.1,70.6,118.7,75z"/>
	<path class="st2" d="M118.7,75.2l0-0.2c-1.6,2.9-3.2,5.1-5.1,6.1c0,0,0,0,0,0.1C115.4,80,117,78.1,118.7,75.2z"/>
	<linearGradient id="SVGID_13_" gradientUnits="userSpaceOnUse" x1="103.931" y1="78.0404" x2="140.6672" y2="78.0404">
		<stop  offset="0" style="stop-color:#7B1019"/>
		<stop  offset="1" style="stop-color:#DD403B"/>
	</linearGradient>
	<path class="st15" d="M118.7,75.2l0-0.2c-1.6,2.9-3.2,5.1-5.1,6.1c0,0,0,0,0,0.1C115.4,80,117,78.1,118.7,75.2z"/>
	<linearGradient id="SVGID_14_" gradientUnits="userSpaceOnUse" x1="118.8005" y1="75.5522" x2="141.2514" y2="53.1014">
		<stop  offset="0" style="stop-color:#F48120"/>
		<stop  offset="1" style="stop-color:#FFC635"/>
	</linearGradient>
	<path class="st16" d="M118.7,75.2l0-0.2c-1.6,2.9-3.2,5.1-5.1,6.1c0,0,0,0,0,0.1C115.4,80,117,78.1,118.7,75.2z"/>
	<path class="st0" d="M119.8,83.6c2.7-1.8,5.8-5.7,9.7-12.1c4.9-9,6.7-11.6,10.6-11.9c0,0-6-2.2-12.8,8.1c-3,6-5.6,9.9-8,12.4
		L119.8,83.6z"/>
	<linearGradient id="SVGID_15_" gradientUnits="userSpaceOnUse" x1="111.3605" y1="71.5368" x2="140.1054" y2="71.5368">
		<stop  offset="0" style="stop-color:#828014"/>
		<stop  offset="1" style="stop-color:#BFC846"/>
	</linearGradient>
	<path class="st17" d="M119.8,83.6c2.7-1.8,5.8-5.7,9.7-12.1c4.9-9,6.7-11.6,10.6-11.9c0,0-6-2.2-12.8,8.1c-3,6-5.6,9.9-8,12.4
		L119.8,83.6z"/>
	<path class="st0" d="M113,83.6c-0.2,0-0.3,0-0.5,0c0.4,0.3,0.9,0.6,1.5,0.8c0-0.3-0.1-0.6-0.1-0.9C113.6,83.5,113.3,83.6,113,83.6z
		"/>
	<linearGradient id="SVGID_16_" gradientUnits="userSpaceOnUse" x1="111.3605" y1="83.9466" x2="140.1054" y2="83.9466">
		<stop  offset="0" style="stop-color:#828014"/>
		<stop  offset="1" style="stop-color:#BFC846"/>
	</linearGradient>
	<path class="st18" d="M113,83.6c-0.2,0-0.3,0-0.5,0c0.4,0.3,0.9,0.6,1.5,0.8c0-0.3-0.1-0.6-0.1-0.9C113.6,83.5,113.3,83.6,113,83.6
		z"/>
	<path class="st2" d="M117.7,81.6c-0.4,0.3-0.8,0.6-1.2,0.8c-0.9,0.5-1.8,0.9-2.6,1c0,0.3,0.1,0.6,0.1,0.9c0.6,0.3,1.4,0.4,2.3,0.4
		c1.1,0,2.3-0.4,3.5-1.2l-0.4-3.5C118.8,80.7,118.3,81.2,117.7,81.6z"/>
	<linearGradient id="SVGID_17_" gradientUnits="userSpaceOnUse" x1="111.3605" y1="82.501" x2="140.1054" y2="82.501">
		<stop  offset="0" style="stop-color:#828014"/>
		<stop  offset="1" style="stop-color:#BFC846"/>
	</linearGradient>
	<path class="st19" d="M117.7,81.6c-0.4,0.3-0.8,0.6-1.2,0.8c-0.9,0.5-1.8,0.9-2.6,1c0,0.3,0.1,0.6,0.1,0.9c0.6,0.3,1.4,0.4,2.3,0.4
		c1.1,0,2.3-0.4,3.5-1.2l-0.4-3.5C118.8,80.7,118.3,81.2,117.7,81.6z"/>
	<path class="st0" d="M119.3,79.9l0,0.2c2.4-2.4,5-6.4,8-12.4c-0.1,0.1-0.1,0.2-0.2,0.3C123.4,73.9,121.2,77.6,119.3,79.9z"/>
	<linearGradient id="SVGID_18_" gradientUnits="userSpaceOnUse" x1="120.2743" y1="77.0259" x2="142.7251" y2="54.5751">
		<stop  offset="0" style="stop-color:#F48120"/>
		<stop  offset="1" style="stop-color:#FFC635"/>
	</linearGradient>
	<path class="st20" d="M119.3,79.9l0,0.2c2.4-2.4,5-6.4,8-12.4c-0.1,0.1-0.1,0.2-0.2,0.3C123.4,73.9,121.2,77.6,119.3,79.9z"/>
	<linearGradient id="SVGID_19_" gradientUnits="userSpaceOnUse" x1="111.3605" y1="73.9637" x2="140.1054" y2="73.9637">
		<stop  offset="0" style="stop-color:#828014"/>
		<stop  offset="1" style="stop-color:#BFC846"/>
	</linearGradient>
	<path class="st21" d="M119.3,79.9l0,0.2c2.4-2.4,5-6.4,8-12.4c-0.1,0.1-0.1,0.2-0.2,0.3C123.4,73.9,121.2,77.6,119.3,79.9z"/>
	<path class="st0" d="M113,83.6c0.3,0,0.6,0,0.9-0.1c0-0.3-0.1-0.6-0.1-0.8c-0.2-0.1-0.3-0.2-0.5-0.3c-0.5-0.2-1.3,0.2-2,0.1
		c0,0,0.4,0.6,1.2,1.2C112.7,83.6,112.8,83.6,113,83.6z"/>
	<linearGradient id="SVGID_20_" gradientUnits="userSpaceOnUse" x1="119.41" y1="76.1616" x2="141.8608" y2="53.7108">
		<stop  offset="0" style="stop-color:#F48120"/>
		<stop  offset="1" style="stop-color:#FFC635"/>
	</linearGradient>
	<path class="st22" d="M113,83.6c0.3,0,0.6,0,0.9-0.1c0-0.3-0.1-0.6-0.1-0.8c-0.2-0.1-0.3-0.2-0.5-0.3c-0.5-0.2-1.3,0.2-2,0.1
		c0,0,0.4,0.6,1.2,1.2C112.7,83.6,112.8,83.6,113,83.6z"/>
	<linearGradient id="SVGID_21_" gradientUnits="userSpaceOnUse" x1="111.3605" y1="82.9184" x2="140.1054" y2="82.9184">
		<stop  offset="0" style="stop-color:#828014"/>
		<stop  offset="1" style="stop-color:#BFC846"/>
	</linearGradient>
	<path class="st23" d="M113,83.6c0.3,0,0.6,0,0.9-0.1c0-0.3-0.1-0.6-0.1-0.8c-0.2-0.1-0.3-0.2-0.5-0.3c-0.5-0.2-1.3,0.2-2,0.1
		c0,0,0.4,0.6,1.2,1.2C112.7,83.6,112.8,83.6,113,83.6z"/>
	<path class="st2" d="M117.7,81.6c0.5-0.4,1.1-0.9,1.6-1.5l0-0.2C118.8,80.6,118.3,81.2,117.7,81.6z"/>
	<linearGradient id="SVGID_22_" gradientUnits="userSpaceOnUse" x1="121.3196" y1="78.0713" x2="143.7705" y2="55.6205">
		<stop  offset="0" style="stop-color:#F48120"/>
		<stop  offset="1" style="stop-color:#FFC635"/>
	</linearGradient>
	<path class="st24" d="M117.7,81.6c0.5-0.4,1.1-0.9,1.6-1.5l0-0.2C118.8,80.6,118.3,81.2,117.7,81.6z"/>
	<linearGradient id="SVGID_23_" gradientUnits="userSpaceOnUse" x1="111.3605" y1="80.7868" x2="140.1054" y2="80.7868">
		<stop  offset="0" style="stop-color:#828014"/>
		<stop  offset="1" style="stop-color:#BFC846"/>
	</linearGradient>
	<path class="st25" d="M117.7,81.6c0.5-0.4,1.1-0.9,1.6-1.5l0-0.2C118.8,80.6,118.3,81.2,117.7,81.6z"/>
	<path class="st2" d="M113.8,82.6c0,0.3,0.1,0.5,0.1,0.8c0.8-0.1,1.7-0.5,2.6-1c-0.5,0.3-1.1,0.5-1.7,0.6
		C114.3,83.1,114,82.9,113.8,82.6z"/>
	<linearGradient id="SVGID_24_" gradientUnits="userSpaceOnUse" x1="120.4768" y1="77.2284" x2="142.9276" y2="54.7776">
		<stop  offset="0" style="stop-color:#F48120"/>
		<stop  offset="1" style="stop-color:#FFC635"/>
	</linearGradient>
	<path class="st26" d="M113.8,82.6c0,0.3,0.1,0.5,0.1,0.8c0.8-0.1,1.7-0.5,2.6-1c-0.5,0.3-1.1,0.5-1.7,0.6
		C114.3,83.1,114,82.9,113.8,82.6z"/>
	<linearGradient id="SVGID_25_" gradientUnits="userSpaceOnUse" x1="111.3605" y1="82.973" x2="140.1054" y2="82.973">
		<stop  offset="0" style="stop-color:#828014"/>
		<stop  offset="1" style="stop-color:#BFC846"/>
	</linearGradient>
	<path class="st27" d="M113.8,82.6c0,0.3,0.1,0.5,0.1,0.8c0.8-0.1,1.7-0.5,2.6-1c-0.5,0.3-1.1,0.5-1.7,0.6
		C114.3,83.1,114,82.9,113.8,82.6z"/>
</g>
	<line class="st28" x1="178.5" y1="23" x2="178.5" y2="127"/>
	<rect x="188.8" y="23.8" class="st29" width="259.3" height="36.6"/>
	<text id="svg_nombre" transform="matrix(1 0 0 1 188.7724 32.2819)" class="st2 st30 st31">NOMBRE</text>
	<rect x="188.8" y="61.2" class="st29" width="259.3" height="36.6"/>
	<text id="svg_cargo" transform="matrix(1 0 0 1 188.7724 69.712)" class="st2 st30 st31">CARGO</text>
	<rect x="188.8" y="99.3" class="st29" width="259.3" height="36.6"/>
	<text transform="matrix(1 0 0 1 188.7724 107.8106)" class="st2 st30 st31">TELEFONO</text>

</svg>
