<svg xmlns="http://www.w3.org/2000/svg" xmlns:xlink="http://www.w3.org/1999/xlink" version="1.1" width="712" height="162">

<style type="text/css">
	.st0{fill:#FFFFFF;}
	.st1{fill:#3A5595;}
	.st2{fill:#2693C9;}
	.st3{fill:#008F36;}
	.st4{fill-rule:evenodd;clip-rule:evenodd;fill:#FFFFFF;}
	.st5{fill:#D98C03;}
	.st6{fill:#002D51;}
	.st7{font-family:'AvantGarde-Book';}
	.st8{font-size:10.3415px;}
	.st9{fill:none;stroke:#002F5D;stroke-width:1.2164;stroke-miterlimit:10;}
	.st10{fill:none;}
	.st11{fill:#002C59;}
	.st12{font-family:'FuturaBook';}
	.st13{font-size:14.7446px;}
	.st14{font-family:'FuturaBold';}
	.st15{font-size:27.7978px;}
	.st16{fill:#6F7072;}
	.st17{fill-rule:evenodd;clip-rule:evenodd;fill:#002C59;}
	.st18{fill:url(#SVGID_1_);}
	.st19{fill:url(#SVGID_2_);}
	.st20{fill:url(#SVGID_3_);}
	.st21{fill:url(#SVGID_4_);}
	.st22{fill:url(#SVGID_5_);}
	.st23{fill:url(#SVGID_6_);}
</style>
<rect class="st0" width="712" height="162"/>
<g>
	<g>
		<g>
			<path class="st1" d="M21,153c0,1.1-0.9,1.9-1.9,1.9H7.4c-1.1,0-1.9-0.9-1.9-1.9v-11.6c0-1.1,0.9-1.9,1.9-1.9H19
				c1.1,0,1.9,0.9,1.9,1.9V153z"/>
		</g>
		<path class="st0" d="M14.2,143.4l0.3-0.1h1.3v-1.7h-2.1c-1.1,0-2,1.1-2,2.4v1.7H10v2h1.7v5.1h2v-5.2h1.7l0.2-2h-1.9V144
			C13.7,143.7,13.9,143.5,14.2,143.4z"/>
	</g>
	<g>
		<g>
			<path class="st2" d="M154.2,153c0,1.1-0.9,1.9-1.9,1.9h-11.6c-1.1,0-1.9-0.9-1.9-1.9v-11.6c0-1.1,0.9-1.9,1.9-1.9h11.6
				c1.1,0,1.9,0.9,1.9,1.9V153z"/>
		</g>
		<path class="st0" d="M150.6,143.4c0,0,0.5,0,1.4-0.5c0,0,0,0.4-0.8,1.1c0,0,0.5,0,1.1-0.3c0,0-0.4,0.7-1.1,1.2
			c0,0,0.5,3.2-2.8,5.7c0,0-2.9,2.3-7,0.1c0,0,1.6,0.2,3.2-1c0,0-1.4-0.1-2-1.6c0,0,0.5,0.1,0.9,0c0,0-1.6-0.4-1.7-2.2
			c0,0,0.5,0.2,0.9,0.2c0,0-1.5-1.1-0.6-3c0,0,1.8,2.2,4.6,2.3c0,0-0.5-2.4,2-2.7C148.8,142.7,149.8,142.5,150.6,143.4z"/>
	</g>
	<g>
		<g>
			<path class="st3" d="M231.2,153c0,1.1-0.9,1.9-1.9,1.9h-11.6c-1.1,0-1.9-0.9-1.9-1.9v-11.6c0-1.1,0.9-1.9,1.9-1.9h11.6
				c1.1,0,1.9,0.9,1.9,1.9V153z"/>
		</g>
		<g>
			<path class="st4" d="M220,145.3c0.3,0.1,0.4,0.3,0.4,0.6c0,1,0,2.1,0,3.1c0,0.1,0,0.2,0,0.3c0.2,0.6,0.5,1.2,1,1.6
				c0.3,0.3,0.6,0.6,0.8,1c0.2,0.4,0.6,0.6,1.1,0.6c0.7,0.1,1.3-0.1,1.6-0.8c0.1-0.2,0.3-0.4,0.4-0.5c0.1-0.1,0.3-0.3,0.4-0.4
				c0,0,0.1-0.1,0.1-0.2c0,0-0.1,0-0.1,0c-0.4,0.2-0.8,0.4-1.2,0.6c0,0-0.1,0-0.1,0.1c-0.4,0.3-1,0.4-1.4,0c-0.4-0.3-0.4-0.8,0-1.1
				c0.4-0.3,0.8-0.3,1.2-0.1c0.1,0,0.1,0,0.2,0c0.7-0.3,1.2-0.7,1.6-1.3c0-0.1,0.1-0.2,0.1-0.2c0-0.9,0-1.8,0-2.8
				c0-0.2,0.1-0.4,0.3-0.5c0.1,0,0.1,0,0.2-0.1c-0.1-0.3-0.1-0.6-0.2-0.9c-0.3-0.8-0.9-1.2-1.5-1.6c-0.5-0.3-1-0.3-1.5-0.3
				c-0.9,0-1.7,0.2-2.5,0.7C220.4,143.7,220.1,144.4,220,145.3z M227.4,146.1c0-0.1,0-0.2,0-0.2c0-0.2-0.1-0.3-0.3-0.3
				c0,0-0.1,0-0.1,0c-0.3,0-0.3,0.1-0.3,0.3c0,0.9,0,1.9,0,2.8c0,0.1,0,0.1,0,0.2c-0.5,0.8-1.2,1.4-2.2,1.7c0,0-0.1,0-0.1,0
				c-0.2-0.2-0.7-0.3-1,0c-0.2,0.1-0.2,0.3,0,0.5c0.3,0.2,0.8,0.2,1-0.1c0,0,0.1,0,0.1-0.1c0.9-0.3,1.7-0.8,2.3-1.6
				c0,0,0.1-0.1,0.1-0.1c0.1,0,0.2,0,0.3,0c0.1,0,0.2-0.1,0.2-0.2c0-0.1,0-0.2,0-0.3c0.4,0,0.2-0.3,0.3-0.5c0.1,0,0.1-0.1,0.1-0.2
				c0-0.2,0-0.4,0-0.6c0,0,0-0.1,0-0.1c0,0,0.1-0.1,0.1-0.1c0-0.5,0-0.9,0-1.4c0,0,0-0.1,0-0.1c0,0,0,0-0.1,0c0,0,0,0-0.1,0.1
				c0,0,0,0.1,0,0.1c0,0.2,0,0.5,0,0.7c0,0,0,0,0,0c0,0-0.1,0-0.1-0.1c0,0,0-0.1,0-0.1C227.6,146.2,227.6,146.1,227.4,146.1z
				 M227.3,144.7c-0.2-1.5-1.6-3.3-3.9-3.3c-2.2,0-3.8,1.6-4,3.3c0.7-1.7,2-2.8,3.9-2.8C225.3,141.9,226.6,143,227.3,144.7z
				 M219.4,148.7c0,0.1,0,0.2,0,0.3c0,0.1,0.1,0.2,0.3,0.2c0.3,0,0.4,0,0.5-0.2c0,0,0,0,0,0c0-1,0-2.1,0-3.1c0-0.2,0-0.3-0.4-0.2
				c-0.2,0-0.3,0.1-0.3,0.2c0,0.1,0,0.2,0,0.2c-0.2,0-0.2,0.1-0.2,0.3c0,0,0,0.1,0,0.1c0,0,0,0.1,0,0.1c0,0-0.1-0.1-0.1-0.1
				c0-0.2,0-0.5,0-0.7c0,0,0-0.1-0.1-0.1c0,0-0.1,0.1-0.1,0.1c0,0.5,0,0.9,0,1.4c0,0,0,0.1,0,0.1c0.1,0,0.1,0.1,0.1,0.2
				c0,0.2,0,0.4,0,0.6c0,0.1,0,0.2,0.1,0.2C219.1,148.7,219.1,148.6,219.4,148.7z"/>
			<path class="st4" d="M220,145.3c0.1-0.9,0.4-1.6,1.1-2.1c0.7-0.6,1.6-0.7,2.5-0.7c0.5,0,1.1,0.1,1.5,0.3c0.7,0.4,1.3,0.8,1.5,1.6
				c0.1,0.3,0.2,0.6,0.2,0.9c-0.1,0-0.2,0-0.2,0.1c-0.2,0.1-0.3,0.3-0.3,0.5c0,0.9,0,1.9,0,2.8c0,0.1,0,0.2-0.1,0.2
				c-0.4,0.6-1,1-1.6,1.3c-0.1,0-0.1,0-0.2,0c-0.4-0.2-0.8-0.2-1.2,0.1c-0.4,0.3-0.4,0.8,0,1.1c0.4,0.3,1,0.3,1.4,0
				c0,0,0.1,0,0.1-0.1c0.4-0.1,0.8-0.3,1.2-0.6c0,0,0,0,0.1,0c0,0.1-0.1,0.1-0.1,0.2c-0.1,0.1-0.3,0.3-0.4,0.4
				c-0.1,0.2-0.3,0.3-0.4,0.5c-0.4,0.6-0.9,0.8-1.6,0.8c-0.5,0-0.8-0.2-1.1-0.6c-0.2-0.4-0.5-0.7-0.8-1c-0.5-0.5-0.8-1-1-1.6
				c0-0.1,0-0.2,0-0.3c0-1,0-2.1,0-3.1C220.5,145.6,220.3,145.4,220,145.3z"/>
			<path class="st4" d="M227.4,146.1c0.2,0,0.2,0,0.2,0.3c0,0,0,0.1,0,0.1c0,0,0,0.1,0.1,0.1c0,0,0,0,0,0c0-0.2,0-0.5,0-0.7
				c0,0,0-0.1,0-0.1c0,0,0-0.1,0.1-0.1c0,0,0.1,0,0.1,0c0,0,0,0.1,0,0.1c0,0.5,0,0.9,0,1.4c0,0,0,0.1-0.1,0.1c0,0,0,0.1,0,0.1
				c0,0.2,0,0.4,0,0.6c0,0.1,0,0.2-0.1,0.2c-0.1,0.2,0.1,0.5-0.3,0.5c0,0.1,0,0.2,0,0.3c0,0.1-0.1,0.2-0.2,0.2c-0.1,0-0.2,0-0.3,0
				c0,0-0.1,0-0.1,0.1c-0.6,0.8-1.3,1.4-2.3,1.6c0,0-0.1,0-0.1,0.1c-0.2,0.3-0.7,0.3-1,0.1c-0.2-0.1-0.2-0.3,0-0.5
				c0.3-0.2,0.7-0.2,1,0c0,0,0.1,0,0.1,0c0.9-0.3,1.6-0.9,2.2-1.7c0,0,0-0.1,0-0.2c0-0.9,0-1.9,0-2.8c0-0.3,0.1-0.3,0.3-0.3
				c0,0,0.1,0,0.1,0c0.2,0,0.3,0.1,0.3,0.3C227.4,146,227.4,146,227.4,146.1z"/>
			<path class="st4" d="M227.3,144.7c-0.8-1.7-2-2.9-4-2.8c-2,0-3.2,1.2-3.9,2.8c0.2-1.7,1.8-3.4,4-3.3
				C225.7,141.5,227.1,143.2,227.3,144.7z"/>
			<path class="st4" d="M219.4,148.7c-0.3-0.1-0.2,0-0.2-0.5c-0.1,0-0.1-0.1-0.1-0.2c0-0.2,0-0.4,0-0.6c0-0.1,0-0.2-0.1-0.2
				c0,0,0-0.1,0-0.1c0-0.5,0-0.9,0-1.4c0,0,0-0.1,0.1-0.1c0,0,0.1,0.1,0.1,0.1c0,0.2,0,0.5,0,0.7c0,0,0,0.1,0.1,0.1c0,0,0-0.1,0-0.1
				c0,0,0-0.1,0-0.1c0-0.2,0-0.2,0.2-0.3c0-0.1,0-0.2,0-0.2c0-0.2,0.1-0.2,0.3-0.2c0.4,0,0.4,0.1,0.4,0.2c0,1,0,2.1,0,3.1
				c0,0,0,0,0,0c0,0.2-0.1,0.2-0.5,0.2c-0.2,0-0.2-0.1-0.3-0.2C219.4,148.9,219.4,148.8,219.4,148.7z"/>
		</g>
	</g>
	<g>
		<g>
			<path class="st5" d="M389,153c0,1.1-0.9,1.9-1.9,1.9h-11.6c-1.1,0-1.9-0.9-1.9-1.9v-11.6c0-1.1,0.9-1.9,1.9-1.9H387
				c1.1,0,1.9,0.9,1.9,1.9V153z"/>
		</g>
		<g>
			<path class="st0" d="M381.2,141.4c-3.1,0-5.7,2.5-5.7,5.7c0,3.1,2.5,5.7,5.7,5.7c3.1,0,5.6-2.5,5.6-5.7
				C386.8,144,384.3,141.4,381.2,141.4 M384.2,149.1c0.1-0.5,0.2-1.1,0.3-1.8l1.5,0c0,0.6-0.2,1.3-0.4,1.8H384.2z M385.9,146.5
				l-1.5,0c0-0.7-0.2-1.3-0.4-1.9h1.3C385.6,145.2,385.8,145.8,385.9,146.5 M383.5,146.5l-1.9,0v-1.9h1.5
				C383.3,145.2,383.5,145.8,383.5,146.5 M381.6,143.9v-1.4c0.2,0.1,0.7,0.6,1.2,1.4H381.6z M380.8,142.4v1.4h-1.2
				C380.1,143,380.7,142.5,380.8,142.4 M380.8,144.7v1.9l-2,0c0-0.7,0.2-1.4,0.4-1.9H380.8z M377.9,146.6l-1.4,0
				c0.1-0.7,0.3-1.3,0.6-1.9h1.2C378.1,145.2,377.9,145.9,377.9,146.6 M376.5,147.4l1.4,0c0,0.7,0.1,1.2,0.3,1.8h-1.3
				C376.7,148.6,376.5,148,376.5,147.4 M378.8,147.3l2,0v1.8h-1.3h-0.4C379,148.6,378.8,148,378.8,147.3 M380.8,149.9v1.6
				c-0.1-0.1-0.8-0.6-1.4-1.6H380.8z M381.6,151.4v-1.6h1.3C382.4,150.8,381.8,151.3,381.6,151.4 M381.6,149.1v-1.8l2,0
				c0,0.7-0.1,1.3-0.3,1.8H381.6z M384.7,143.9h-1c-0.3-0.5-0.6-1-0.9-1.3C383.5,142.9,384.2,143.3,384.7,143.9 M379.6,142.6
				c-0.3,0.3-0.6,0.8-0.9,1.3h-1C378.2,143.3,378.9,142.9,379.6,142.6 M377.4,149.9h1.1c0.3,0.8,0.8,1.3,1.1,1.6
				C378.6,151.2,377.9,150.6,377.4,149.9 M382.8,151.5c0.3-0.3,0.7-0.8,1.1-1.7h1.1C384.5,150.6,383.7,151.2,382.8,151.5"/>
			<path class="st0" d="M379.4,149.1L379.4,149.1L379.4,149.1C379.5,149.1,379.5,149.1,379.4,149.1"/>
		</g>
	</g>
	<text transform="matrix(1 0 0 1 23.5579 150.4229)" class="st6 st7 st8">/BolivianaDeAviación</text>
	<g>
		<text transform="matrix(1 0 0 1 156.6184 150.4229)" class="st6 st7 st8">BoABolivia</text>
	</g>
	<g>
		<text transform="matrix(1 0 0 1 234.1794 150.4229)" class="st6 st7 st8">Call Center BO: 901105010</text>
	</g>
	<g>
		<text transform="matrix(1 0 0 1 392.0608 150.4229)" class="st6 st7 st8">www.boa.bo</text>
	</g>
</g>
<line class="st9" x1="211.9" y1="8" x2="211.9" y2="117.9"/>
<rect x="218" y="39" class="st10" width="493" height="16.7"/>
<text id="svg_cargo" transform="matrix(1 0 0 1 218 51.1436)" class="st11 st12 st13">GERENTE ADMINISTRATIVO FINANCIERO esp</text>
<rect x="218" y="58.7" class="st10" width="493" height="16.7"/>
<text id="svg_cargo_ingles" transform="matrix(1 0 0 1 218 70.8895)" class="st11 st12 st13">GERENTE ADMINISTRATIVO FINANCIERO ingles</text>
<rect x="218.3" y="9.6" class="st10" width="492.3" height="29.3"/>
<text id="svg_nombre_funcionario" transform="matrix(0.9542 0 0 1 218.3332 32.7178)" class="st11 st14 st15">GONZALO MAYORGA</text>
<rect x="219.7" y="76" class="st10" width="488.7" height="17.3"/>
<text id="svg_direccion" transform="matrix(1 0 0 1 219.6667 88.1434)" class="st16 st12 st13">Av. Simón López 1582 Tel. 591 (4) 4140873</text>
<rect x="219.7" y="95.9" class="st10" width="488.7" height="17.3"/>
<text id="svg_telefonos" transform="matrix(1 0 0 1 219.6667 108.1038)" class="st16 st12 st13">Int. 123 Cel. 72202121</text>
<rect x="219.7" y="115.9" class="st10" width="488.7" height="17.3"/>
<text id="svg_oficina" transform="matrix(1 0 0 1 219.6667 128.0642)" class="st16 st12 st13">Cochabamba - Bolivia</text>
<g>
	<path class="st17" d="M144.8,68.6c-21.8,24-5.6,6.2-29.4,32.3h-5.6l30.8-33.8c2.5-2.7,0.3-2.8,0.1-2.8l-1.9,0l2-2.2l9.1,0
		c2.2,0,2.8,0.3,3.1,2.2l4.7,36.6H149C146.7,81.7,147.8,91,144.8,68.6z"/>
	<path class="st17" d="M62.8,81c4.8,0.6,7.5,1.7,8.4,3.1c1.4,2,1,4.3,0.1,6.3c-0.9,2-2.3,3.8-4.3,5.3c-1.9,1.4-4.2,2.5-6.7,3.2
		c-2.6,0.8-5.3,1.3-8.1,1.6c-2,0.2-4,0.3-6.1,0.4v-2.5c1.2-0.1,2.3-0.1,3.5-0.3c1.8-0.2,3.5-0.6,5.2-1.1c4.9-0.8,12.3-9.5,5.5-13.1
		c-1.2-0.5-2.6-0.9-4-1.1c-1.6-0.2-3.2-0.3-4.9-0.3h-5.3v-2.4h1.7c2.4,0,2.6,0,4.9-0.1c4.9-0.5,8.5-1.7,11.2-4.4
		c2.2-2.2,4.6-7.5,1.4-9.6c-1.9-1.2-4.6-1.6-7-1.7H46.2v-2.2l11.9,0c2.5,0,5,0.1,7.4,0.4c2.2,0.3,4.4,0.8,6.3,1.7
		c1.8,0.9,3,2,3.7,3.4c0.2,0.5,0.4,1.1,0.4,1.6v0.4c0,1.2-0.5,2.4-1.1,3.4C73.4,76.5,68.5,79.8,62.8,81z M46.2,100.9
		c-0.8,0-1.7,0-2.5,0H19.8l13.9-33.6c0.2-0.6,0.7-1.9,0.1-2.4c-0.5-0.5-0.8-0.6-1.2-0.6h-2l1-2.1l14.6,0v2.2h-2.7l-6.4,15.8h9.1v2.4
		H36l-6.7,15.9H44c0.7,0,1.4,0,2.2-0.1V100.9z"/>
	<path class="st17" d="M94,75.2c1.8-0.2,3.7-0.2,5.5-0.2c8,0,18.1,1.3,14.8,8.7l-3.9,8.9c-2.4,5.5-9.2,7.6-16.4,8.2v-3.1
		c3.7-0.7,6.5-2.3,7.8-5.4l3.9-8.9c1.9-4.2-1.5-5.4-7-5.4c-1.7,0-3.3,0.1-4.7,0.4V75.2z M74.4,92.3l3.8-8.9C80.6,78,87,75.9,94,75.2
		v3.1c-3.7,0.7-6.5,2.3-7.8,5.3l-3.9,8.9c-1.9,4.2,1.5,5.4,7.1,5.4c1.7,0,3.2-0.1,4.6-0.4v3.1c-1.8,0.1-3.6,0.2-5.4,0.2
		c-7,0-14.7-1.1-14.9-5.9v-0.2C73.8,94.1,74,93.3,74.4,92.3z"/>
	<g>
		<g>
			<g>
				<path class="st11" d="M18.5,113c0.6,0.2,0.9,0.6,1.1,1.1c0.2,0.5,0.1,1.1-0.2,1.8c-0.3,0.7-0.6,1.2-1.1,1.6
					c-0.4,0.4-0.9,0.7-1.5,1c-0.5,0.2-1.1,0.4-1.7,0.5c-0.6,0.1-1.2,0.1-1.8,0.1H8.4l4.2-10.2c0.2-0.4,0.2-0.8,0.1-1
					c-0.1-0.2-0.3-0.3-0.7-0.3h-0.3l0.2-0.5h0.2h5.8c0.5,0,1,0,1.5,0.1c0.5,0.1,0.9,0.3,1.2,0.5c0.3,0.2,0.5,0.6,0.6,1
					c0.1,0.4,0,0.9-0.3,1.6C20.3,111.6,19.5,112.5,18.5,113z M12.3,113.5l-1.9,4.5h3.2c0.4,0,0.8,0,1.2-0.1c0.4-0.1,0.8-0.2,1.2-0.4
					c0.4-0.2,0.7-0.4,1-0.7c0.3-0.3,0.6-0.7,0.7-1.1c0.2-0.4,0.2-0.8,0.2-1.1c-0.1-0.3-0.2-0.5-0.5-0.7c-0.2-0.2-0.5-0.3-0.9-0.3
					c-0.3-0.1-0.7-0.1-1.1-0.1H12.3z M12.8,112.5h2.4c0.6,0,1.1,0,1.6-0.1c0.4-0.1,0.8-0.2,1.2-0.4c0.3-0.2,0.6-0.4,0.9-0.7
					c0.2-0.3,0.4-0.7,0.6-1.1c0.3-0.6,0.2-1.1-0.1-1.4c-0.3-0.3-0.8-0.5-1.6-0.6h-3.2L12.8,112.5z"/>
				<path class="st11" d="M20.4,116l1.4-3.4c0.9-2,2.8-3.1,5.7-3.1c3,0,4,1,3.2,3.1l-1.4,3.4c-0.9,2.1-2.8,3.1-5.7,3.1
					C20.6,119.1,19.5,118.1,20.4,116z M23.8,118.4c1.8,0,3-0.8,3.6-2.4l1.4-3.4c0.7-1.6,0.1-2.4-1.7-2.4c-1.8,0-3,0.8-3.7,2.4
					l-1.4,3.4C21.5,117.6,22.1,118.4,23.8,118.4z"/>
				<path class="st11" d="M37.2,106.7L32,119.1h-1.8l4.9-11.9L37.2,106.7z"/>
				<path class="st11" d="M40.1,109.5l-4,9.6h-1.8l4-9.6H40.1z M40.9,107.4l-0.4,1h-1.8l0.4-1H40.9z"/>
				<path class="st11" d="M50.5,109.5l-6.8,8.9c-0.1,0.1-0.1,0.1-0.2,0.2c-0.1,0.1-0.2,0.2-0.4,0.2c-0.2,0.1-0.4,0.1-0.7,0.2
					c-0.3,0-0.6,0.1-0.9,0.1c-0.5,0-0.9,0-1.1-0.1c-0.2-0.1-0.4-0.1-0.5-0.2c-0.1-0.1-0.2-0.2-0.2-0.2c0-0.1,0-0.1,0-0.1l1-8.8h1.5
					l-0.9,7.7c0,0.1,0,0.2,0,0.2c0,0.1,0,0.1,0.1,0.2c0.1,0,0.1,0.1,0.2,0.1h0.5c0.2,0,0.3,0,0.4-0.1c0.1-0.1,0.2-0.2,0.3-0.3
					l5.8-7.7H50.5z"/>
				<path class="st11" d="M53.7,109.5l-4,9.6H48l4-9.6H53.7z M54.6,107.4l-0.4,1h-1.8l0.4-1H54.6z"/>
				<path class="st11" d="M57.7,118.8c-0.4,0.2-0.9,0.3-1.5,0.3h-0.1c-3,0-4-1-3.2-3.1c0.9-2,2.8-3.1,5.7-3.1h2.7l0.2-0.4
					c0.7-1.6,0.1-2.4-1.7-2.4c-1,0-1.8,0.2-2.5,0.7l-0.7-0.8c0.9-0.4,2.1-0.6,3.5-0.6c3,0,4,1,3.2,3.1l-2.7,6.5h-1.8l2.3-5.5h-2.7
					c-1.8,0-3,0.8-3.7,2.4c-0.7,1.6-0.1,2.4,1.7,2.4c0.7,0,1.3-0.1,1.6-0.3L57.7,118.8z"/>
				<path class="st11" d="M71,110.2c-1.7,0-2.9,0.8-3.6,2.3l-2.8,6.6h-1.8l4-9.6h1.8l-0.3,0.7c0.8-0.5,1.8-0.7,3-0.7
					c3,0,4,1,3.2,3.1l-2.7,6.5h-1.8l2.7-6.5C73.3,111,72.8,110.2,71,110.2z"/>
				<path class="st11" d="M80,118.8c-0.4,0.2-0.9,0.3-1.5,0.3h-0.1c-3,0-4-1-3.2-3.1c0.9-2,2.8-3.1,5.7-3.1h2.7l0.2-0.4
					c0.7-1.6,0.1-2.4-1.7-2.4c-1,0-1.8,0.2-2.5,0.7l-0.7-0.8c0.9-0.4,2.1-0.6,3.5-0.6c3,0,4,1,3.2,3.1l-2.7,6.5h-1.8l2.3-5.5h-2.7
					c-1.8,0-3,0.8-3.7,2.4c-0.7,1.6-0.1,2.4,1.7,2.4c0.7,0,1.3-0.1,1.6-0.3L80,118.8z"/>
				<path class="st11" d="M101.9,115.8l2.3-5.6h-2.7c-1.8,0-3,0.8-3.7,2.4l-1.4,3.4c-0.7,1.6-0.1,2.4,1.7,2.4c0.8,0,1.4-0.1,1.8-0.4
					c0,0.3-0.1,0.6-0.3,0.9c-0.4,0.1-1,0.2-1.7,0.2h-0.1c-3,0-4-1-3.2-3.1l1.4-3.4c0.9-2,2.8-3.1,5.7-3.1h2.7l1-2.3l2-0.5l-5.2,12.4
					h-1.8L101.9,115.8z"/>
				<path class="st11" d="M113,109.5c3,0,4,1,3.2,3.1l-0.9,2.1h-7.1l-0.6,1.4c-0.7,1.6-0.1,2.4,1.7,2.4c1.8,0,2.9-0.6,3.4-1.8h1.8
					c-0.7,1.7-2.5,2.5-5.5,2.5c-3,0-4-1-3.2-3.1l1.4-3.4C108.1,110.5,110.1,109.5,113,109.5z M112.7,110.2c-1.8,0-3,0.8-3.7,2.4
					l-0.6,1.4h5.3l0.6-1.4C115.1,111,114.5,110.2,112.7,110.2z"/>
				<path class="st11" d="M125.4,119.1H124l7.7-10.7c0.3-0.6-0.1-0.8-1-0.7l0.2-0.5h3.3c0.5,0,0.8,0.2,0.8,0.5l-0.8,11.4h-1.5
					l0.1-3.5H128L125.4,119.1z M133.2,108.5l-4.7,6.1h4.3L133.2,108.5z"/>
				<path class="st11" d="M148.6,109.5l-6.8,8.9c-0.1,0.1-0.1,0.1-0.2,0.2c-0.1,0.1-0.2,0.2-0.4,0.2c-0.2,0.1-0.4,0.1-0.7,0.2
					c-0.3,0-0.6,0.1-0.9,0.1c-0.5,0-0.9,0-1.1-0.1c-0.2-0.1-0.4-0.1-0.5-0.2c-0.1-0.1-0.2-0.2-0.2-0.2c0-0.1,0-0.1,0-0.1l1-8.8h1.5
					l-0.9,7.7c0,0.1,0,0.2,0,0.2c0,0.1,0,0.1,0.1,0.2c0.1,0,0.1,0.1,0.2,0.1h0.5c0.2,0,0.3,0,0.4-0.1c0.1-0.1,0.2-0.2,0.3-0.3
					l5.8-7.7H148.6z"/>
				<path class="st11" d="M151.8,109.5l-4,9.6h-1.8l4-9.6H151.8z M152.7,107.4l-0.4,1h-1.8l0.4-1H152.7z"/>
				<path class="st11" d="M155.8,118.8c-0.4,0.2-0.9,0.3-1.5,0.3h-0.1c-3,0-4-1-3.2-3.1c0.9-2,2.8-3.1,5.7-3.1h2.7l0.2-0.4
					c0.7-1.6,0.1-2.4-1.7-2.4c-1,0-1.8,0.2-2.5,0.7l-0.7-0.8c0.9-0.4,2.1-0.6,3.5-0.6c3,0,4,1,3.2,3.1l-2.7,6.5h-1.8l2.3-5.5h-2.7
					c-1.8,0-3,0.8-3.7,2.4c-0.7,1.6-0.1,2.4,1.7,2.4c0.7,0,1.3-0.1,1.6-0.3L155.8,118.8z"/>
				<path class="st11" d="M165.4,112.5L164,116c-0.7,1.6-0.1,2.4,1.7,2.4c1.8,0,2.9-0.5,3.3-1.6h1.8c-0.6,1.5-2.5,2.3-5.4,2.3
					c-3,0-4-1-3.2-3.1l1.4-3.4c0.9-2,2.8-3.1,5.7-3.1c3,0,4.1,0.8,3.5,2.3h-1.8c0.4-1.1-0.2-1.6-2-1.6
					C167.3,110.2,166.1,111,165.4,112.5z"/>
				<path class="st11" d="M177.6,109.5l-4,9.6h-1.8l4-9.6H177.6z M178.5,107.4l-0.4,1h-1.8l0.4-1H178.5z"/>
				<path class="st11" d="M176.8,116l1.4-3.4c0.9-2,2.8-3.1,5.7-3.1c3,0,4,1,3.2,3.1l-1.4,3.4c-0.9,2.1-2.8,3.1-5.7,3.1
					C177,119.1,176,118.1,176.8,116z M180.3,118.4c1.8,0,3-0.8,3.6-2.4l1.4-3.4c0.7-1.6,0.1-2.4-1.7-2.4c-1.8,0-3,0.8-3.7,2.4
					l-1.4,3.4C177.9,117.6,178.5,118.4,180.3,118.4z M184.1,109.2l0.3-0.6c0.2-0.1,0.4-0.3,0.7-0.4c0.3-0.2,0.5-0.3,0.8-0.4
					c0.3-0.1,0.5-0.3,0.7-0.4c0.2-0.1,0.4-0.2,0.5-0.2c0,0.1,0,0.1,0,0.2c0,0.1,0,0.2,0.1,0.2l0.1,0.3L184.1,109.2z"/>
				<path class="st11" d="M194.8,110.2c-1.7,0-2.9,0.8-3.6,2.3l-2.8,6.6h-1.8l4-9.6h1.8l-0.3,0.7c0.8-0.5,1.8-0.7,3-0.7
					c3,0,4,1,3.2,3.1l-2.7,6.5h-1.8l2.7-6.5C197.2,111,196.6,110.2,194.8,110.2z"/>
			</g>
		</g>
	</g>
	<g>
		<linearGradient id="SVGID_1_" gradientUnits="userSpaceOnUse" x1="133.176" y1="52.941" x2="186.503" y2="52.941">
			<stop  offset="0" style="stop-color:#7F181F"/>
			<stop  offset="1" style="stop-color:#D93633"/>
		</linearGradient>
		<path class="st18" d="M133.2,83.9c0,0,2.8,4,7.9,4c10.3,0,15.1-11.4,26.2-37.9c7.1-21.1,12.5-31,19.3-32c0,0-13.3-2.5-23.9,23.1
			c-7,16.9-10.6,41.7-22,43.5c-3.1,0.4-2.6-0.7-3.9-1.1C135.6,83.3,134.2,84.3,133.2,83.9z"/>
		<linearGradient id="SVGID_2_" gradientUnits="userSpaceOnUse" x1="179.1248" y1="60.6093" x2="190.7274" y2="60.6093">
			<stop  offset="0" style="stop-color:#8F8700"/>
			<stop  offset="1" style="stop-color:#CCCB35"/>
		</linearGradient>
		<path class="st19" d="M179.1,59.1c0,0,3-2.7,4.4-2.5c3,0.3,6.2,6.7,7.2,8.7c0,0-1.7-7.2-4.4-8.6c-2.4-1.3-4.3,0.1-4.3,0.1
			S179.5,58.4,179.1,59.1z"/>
		<linearGradient id="SVGID_3_" gradientUnits="userSpaceOnUse" x1="181.8885" y1="40.6129" x2="199.9176" y2="40.6129">
			<stop  offset="0" style="stop-color:#ED7F00"/>
			<stop  offset="1" style="stop-color:#FCC821"/>
		</linearGradient>
		<path class="st20" d="M181.9,38.9c0,0,3.6-3.9,5.7-4c5-0.2,10.6,9.8,12.3,12.4c0,0-4-10.5-7.9-12.7c-3.4-2-6.6,0.7-6.6,0.7
			S182.5,37.9,181.9,38.9z"/>
		<linearGradient id="SVGID_4_" gradientUnits="userSpaceOnUse" x1="178.0221" y1="25.2779" x2="196.1298" y2="25.2779">
			<stop  offset="0" style="stop-color:#7F181F"/>
			<stop  offset="1" style="stop-color:#D93633"/>
		</linearGradient>
		<path class="st21" d="M178,25.4c0,0,4.2-5.2,6.3-5c4.5,0.5,10.1,8.4,11.8,11.1c0,0-3.1-9.5-7.5-11.7c-3.7-1.9-7,1.1-7,1.1
			S178.6,24.4,178,25.4z"/>
		<linearGradient id="SVGID_5_" gradientUnits="userSpaceOnUse" x1="151.8797" y1="75.2905" x2="184.4697" y2="42.7004">
			<stop  offset="0" style="stop-color:#ED7F00"/>
			<stop  offset="1" style="stop-color:#FCC821"/>
		</linearGradient>
		<path class="st22" d="M138.3,85.9c0,0,3,4,8.1,3.9c6.8-0.2,15-8.2,26.1-34.7c7.2-15.4,12.1-22,18.3-22.2c0,0-12.9-5.2-25,20.1
			c-7.9,16.5-12.4,32-20.4,33.8c-2.2,0.4-2.3-0.4-3.6-0.9C140.7,85.7,139.3,86.3,138.3,85.9z"/>
		<linearGradient id="SVGID_6_" gradientUnits="userSpaceOnUse" x1="143.9607" y1="73.2171" x2="185.6874" y2="73.2171">
			<stop  offset="0" style="stop-color:#8F8700"/>
			<stop  offset="1" style="stop-color:#CCCB35"/>
		</linearGradient>
		<path class="st23" d="M144,88.1c0,0,2.4,3.5,7.1,3.5c5.3,0,11.1-5.8,19.3-19.3c7.1-13.1,9.8-16.8,15.3-17.3c0,0-8.9-3.2-18.8,12.2
			c-9.9,15.4-12.4,20.9-18,21.8c-1,0.1-1.5-0.7-2.1-1C146,87.7,144.9,88.3,144,88.1z"/>
	</g>
</g>
</svg>
